<?xml version="1.0" standalone="no"?>
<!DOCTYPE svg PUBLIC "-//W3C//DTD SVG 20010904//EN"
 "http://www.w3.org/TR/2001/REC-SVG-20010904/DTD/svg10.dtd">
<svg version="1.0" xmlns="http://www.w3.org/2000/svg"
 width="653.000000pt" height="653.000000pt" viewBox="0 0 653.000000 653.000000"
 preserveAspectRatio="xMidYMid meet">
<metadata>
Created by potrace 1.14, written by Peter Selinger 2001-2017
</metadata>
<g transform="translate(0.000000,653.000000) scale(0.100000,-0.100000)"
fill="#000000" stroke="none">
<path d="M763 6520 c-340 -50 -621 -299 -730 -647 l-28 -88 0 -2510 0 -2510
23 -85 c40 -153 115 -288 219 -396 74 -77 138 -127 208 -164 31 -16 62 -33 68
-37 25 -16 115 -45 197 -63 83 -19 150 -20 2570 -17 l2485 2 80 22 c342 96
598 372 662 715 4 23 8 1164 8 2533 l0 2490 -23 85 c-90 341 -348 586 -692
661 -81 17 -193 18 -2540 17 -1350 0 -2478 -4 -2507 -8z"/>
</g>
</svg>
